<svg width="39" height="39" viewBox="0 0 39 39" fill="none" xmlns="http://www.w3.org/2000/svg">
<g filter="url(#filter0_d_2_128)">
<path d="M23.5135 0.760986H15.4334C8.05996 0.760986 6.31201 2.43118 6.31201 9.47664V17.1973C6.31201 24.2427 8.05996 25.9129 15.4334 25.9129H23.5135C30.887 25.9129 32.6349 24.2427 32.6349 17.1973V9.47664C32.6349 2.43118 30.8697 0.760986 23.5135 0.760986ZM27.5622 18.7032H25.6513C24.9275 18.7032 24.7046 18.1546 23.4025 16.8939C22.2714 15.8462 21.7705 15.7071 21.4916 15.7071C21.0976 15.7071 20.9858 15.8132 20.9858 16.3295V17.9793C20.9858 18.4218 20.8402 18.6875 19.6145 18.6875C17.5877 18.6875 15.3388 17.5164 13.762 15.3345C11.384 12.1372 10.7333 9.7423 10.7333 9.24714C10.7333 8.98069 10.8443 8.73154 11.3798 8.73154H13.2948C13.7793 8.73154 13.9635 8.94454 14.1519 9.4397C15.0987 12.0515 16.6755 14.3395 17.3262 14.3395C17.5664 14.3395 17.6774 14.2334 17.6774 13.6478V10.9503C17.6042 9.70615 16.919 9.59925 16.919 9.15754C16.919 8.94454 17.1032 8.73154 17.3985 8.73154H20.41C20.8171 8.73154 20.9668 8.94454 20.9668 9.40276V13.0418C20.9668 13.4348 21.1511 13.5739 21.2621 13.5739C21.5023 13.5739 21.708 13.4348 22.153 13.0088C23.5283 11.5351 24.5137 9.26286 24.5137 9.26286C24.6421 8.99641 24.865 8.74726 25.3495 8.74726H27.2644C27.8385 8.74726 27.9669 9.02942 27.8385 9.42241C27.5984 10.4866 25.2549 13.647 25.2549 13.647C25.0533 13.9661 24.976 14.1052 25.2549 14.4613C25.4605 14.7277 26.1293 15.2803 26.5743 15.7754C27.3927 16.6636 28.022 17.4087 28.1898 17.9243C28.3782 18.436 28.1001 18.7024 27.5597 18.7024L27.5622 18.7032Z" fill="#FFFAEE"/>
</g>
<defs>
<filter id="filter0_d_2_128" x="0.119335" y="0.760986" width="38.7082" height="37.5372" filterUnits="userSpaceOnUse" color-interpolation-filters="sRGB">
<feFlood flood-opacity="0" result="BackgroundImageFix"/>
<feColorMatrix in="SourceAlpha" type="matrix" values="0 0 0 0 0 0 0 0 0 0 0 0 0 0 0 0 0 0 127 0" result="hardAlpha"/>
<feOffset dy="6.19268"/>
<feGaussianBlur stdDeviation="3.09634"/>
<feComposite in2="hardAlpha" operator="out"/>
<feColorMatrix type="matrix" values="0 0 0 0 0.909583 0 0 0 0 0.769391 0 0 0 0 0.485111 0 0 0 0.81 0"/>
<feBlend mode="normal" in2="BackgroundImageFix" result="effect1_dropShadow_2_128"/>
<feBlend mode="normal" in="SourceGraphic" in2="effect1_dropShadow_2_128" result="shape"/>
</filter>
</defs>
</svg>
