<svg width="103" height="94" viewBox="0 0 103 94" fill="none" xmlns="http://www.w3.org/2000/svg">
<path d="M96.9138 16.0404L96.421 15.9563L96.9138 16.0404ZM99.2257 0.394322C99.4511 0.234693 99.7631 0.287961 99.9228 0.513294L102.524 4.18529C102.684 4.41062 102.63 4.72269 102.405 4.88231C102.18 5.04194 101.868 4.98868 101.708 4.76334L99.3958 1.49935L96.1318 3.81156C95.9065 3.97119 95.5944 3.91792 95.4348 3.69259C95.2752 3.46726 95.3284 3.15519 95.5538 2.99556L99.2257 0.394322ZM96.421 15.9563L99.0219 0.718195L100.008 0.886448L97.4067 16.1246L96.421 15.9563ZM0.965621 92.6357C47.5948 94.8868 88.5664 61.9743 96.421 15.9563L97.4067 16.1246C89.467 62.641 48.0517 95.91 0.917401 93.6345L0.965621 92.6357Z" fill="url(#paint0_linear_2_125)"/>
<defs>
<linearGradient id="paint0_linear_2_125" x1="-5.856" y1="98.7997" x2="-7.26952" y2="-32.5725" gradientUnits="userSpaceOnUse">
<stop stop-color="#888888" stop-opacity="0"/>
<stop offset="0.28125" stop-color="#888888"/>
<stop offset="0.551448" stop-color="#888888"/>
<stop offset="0.739583" stop-color="#888888"/>
<stop offset="1" stop-color="#888888" stop-opacity="0"/>
</linearGradient>
</defs>
</svg>
