<svg width="34" height="33" viewBox="0 0 34 33" fill="none" xmlns="http://www.w3.org/2000/svg">
<path d="M22.1706 0.107422H11.8637C2.45819 0.107422 0.228516 2.28593 0.228516 11.4756V21.546C0.228516 30.7356 2.45819 32.9142 11.8637 32.9142H22.1706C31.5761 32.9142 33.8058 30.7356 33.8058 21.546V11.4756C33.8058 2.28593 31.5541 0.107422 22.1706 0.107422ZM27.335 23.5102H24.8976C23.9742 23.5102 23.6899 22.7946 22.0289 21.1502C20.5862 19.7837 19.9472 19.6022 19.5915 19.6022C19.0889 19.6022 18.9462 19.7406 18.9462 20.4142V22.566C18.9462 23.1432 18.7605 23.4897 17.1971 23.4897C14.6117 23.4897 11.7431 21.9622 9.73163 19.1163C6.69823 14.9459 5.86827 11.8221 5.86827 11.1763C5.86827 10.8287 6.00992 10.5038 6.69299 10.5038H9.13566C9.75367 10.5038 9.9887 10.7816 10.229 11.4274C11.4367 14.8341 13.4481 17.8184 14.2781 17.8184C14.5844 17.8184 14.7261 17.68 14.7261 16.9162V13.3978C14.6327 11.775 13.7587 11.6356 13.7587 11.0594C13.7587 10.7816 13.9937 10.5038 14.3704 10.5038H18.2117C18.7311 10.5038 18.9221 10.7816 18.9221 11.3793V16.1258C18.9221 16.6384 19.1571 16.8199 19.2988 16.8199C19.6051 16.8199 19.8675 16.6384 20.4351 16.0828C22.1895 14.1606 23.4465 11.1968 23.4465 11.1968C23.6102 10.8492 23.8945 10.5243 24.5125 10.5243H26.9552C27.6876 10.5243 27.8512 10.8923 27.6876 11.4049C27.3812 12.793 24.3918 16.9152 24.3918 16.9152C24.1348 17.3314 24.0361 17.5129 24.3918 17.9773C24.6542 18.3248 25.5072 19.0455 26.0749 19.6914C27.1189 20.8499 27.9215 21.8217 28.1356 22.4942C28.3759 23.1616 28.0212 23.5092 27.3319 23.5092L27.335 23.5102Z" fill="white"/>
</svg>
