<svg width="181" height="87" viewBox="0 0 181 87" fill="none" xmlns="http://www.w3.org/2000/svg">
<rect x="1" y="-57" width="180" height="144" rx="13" fill="#E3C6C6"/>
<rect y="-61" width="181" height="144" rx="13" fill="url(#paint0_linear_2_129)"/>
<rect y="-61" width="181" height="144" rx="13" fill="url(#paint1_linear_2_129)" fill-opacity="0.4"/>
<path d="M65.5702 30.375V30.9609C65.5702 31.7666 65.4652 32.4893 65.2553 33.1289C65.0453 33.7686 64.745 34.313 64.3544 34.7622C63.9687 35.2114 63.5048 35.5557 62.9628 35.7949C62.4208 36.0293 61.8202 36.1465 61.161 36.1465C60.5067 36.1465 59.9086 36.0293 59.3666 35.7949C58.8295 35.5557 58.3632 35.2114 57.9677 34.7622C57.5722 34.313 57.2645 33.7686 57.0448 33.1289C56.83 32.4893 56.7226 31.7666 56.7226 30.9609V30.375C56.7226 29.5693 56.83 28.8491 57.0448 28.2144C57.2597 27.5747 57.5624 27.0303 57.953 26.5811C58.3485 26.127 58.8148 25.7827 59.352 25.5483C59.8939 25.3091 60.4921 25.1895 61.1464 25.1895C61.8056 25.1895 62.4062 25.3091 62.9481 25.5483C63.4901 25.7827 63.9564 26.127 64.3471 26.5811C64.7377 27.0303 65.038 27.5747 65.2479 28.2144C65.4628 28.8491 65.5702 29.5693 65.5702 30.375ZM63.7318 30.9609V30.3604C63.7318 29.7646 63.6732 29.2397 63.5561 28.7856C63.4437 28.3267 63.2753 27.9434 63.0507 27.6357C62.831 27.3232 62.56 27.0889 62.2377 26.9326C61.9154 26.7715 61.5517 26.6909 61.1464 26.6909C60.7411 26.6909 60.3798 26.7715 60.0624 26.9326C59.745 27.0889 59.474 27.3232 59.2494 27.6357C59.0297 27.9434 58.8612 28.3267 58.744 28.7856C58.6269 29.2397 58.5683 29.7646 58.5683 30.3604V30.9609C58.5683 31.5566 58.6269 32.084 58.744 32.543C58.8612 33.002 59.0321 33.3901 59.2567 33.7075C59.4862 34.02 59.7597 34.2568 60.077 34.418C60.3944 34.5742 60.7558 34.6523 61.161 34.6523C61.5712 34.6523 61.935 34.5742 62.2523 34.418C62.5697 34.2568 62.8383 34.02 63.058 33.7075C63.2777 33.3901 63.4437 33.002 63.5561 32.543C63.6732 32.084 63.7318 31.5566 63.7318 30.9609ZM69.9513 25.3359V36H68.1202V25.3359H69.9513ZM76.3673 25.3359L72.0313 31.415H69.4312L69.1822 29.8184H71.0133L74.1187 25.3359H76.3673ZM74.4923 36L71.0426 31.1367L72.2291 29.7231L76.6969 36H74.4923ZM84.491 32.5283H86.3221C86.2635 33.2266 86.0682 33.8491 85.7361 34.396C85.4041 34.938 84.9378 35.3652 84.3372 35.6777C83.7366 35.9902 83.0066 36.1465 82.1473 36.1465C81.4881 36.1465 80.8948 36.0293 80.3675 35.7949C79.8401 35.5557 79.3885 35.2188 79.0125 34.7842C78.6365 34.3447 78.3484 33.8149 78.1482 33.1948C77.9529 32.5747 77.8553 31.8813 77.8553 31.1147V30.2285C77.8553 29.4619 77.9554 28.7686 78.1556 28.1484C78.3606 27.5283 78.6536 26.9985 79.0345 26.5591C79.4153 26.1147 79.8719 25.7754 80.4041 25.541C80.9412 25.3066 81.5442 25.1895 82.2132 25.1895C83.0628 25.1895 83.7806 25.3457 84.3665 25.6582C84.9524 25.9707 85.4065 26.4028 85.7288 26.9546C86.056 27.5063 86.2561 28.1387 86.3294 28.8516H84.4983C84.4495 28.3926 84.3421 27.9995 84.1761 27.6724C84.0149 27.3452 83.7757 27.0962 83.4583 26.9253C83.1409 26.7495 82.7259 26.6616 82.2132 26.6616C81.7933 26.6616 81.427 26.7397 81.1145 26.896C80.802 27.0522 80.5408 27.2817 80.3309 27.5845C80.1209 27.8872 79.9622 28.2607 79.8548 28.7051C79.7522 29.1445 79.701 29.6475 79.701 30.2139V31.1147C79.701 31.6519 79.7474 32.1401 79.8401 32.5796C79.9378 33.0142 80.0843 33.3877 80.2796 33.7002C80.4798 34.0127 80.7337 34.2544 81.0413 34.4253C81.3489 34.5962 81.7176 34.6816 82.1473 34.6816C82.6697 34.6816 83.0921 34.5986 83.4144 34.4326C83.7415 34.2666 83.9881 34.0249 84.1541 33.7075C84.325 33.3853 84.4373 32.9922 84.491 32.5283ZM92.8198 26.7568L89.6338 36H87.7075L91.7212 25.3359H92.9517L92.8198 26.7568ZM95.4858 36L92.2925 26.7568L92.1533 25.3359H93.3911L97.4194 36H95.4858ZM95.332 32.0449V33.5024H89.5312V32.0449H95.332ZM106.334 29.7891V31.2466H100.673V29.7891H106.334ZM101.127 25.3359V36H99.2883V25.3359H101.127ZM107.748 25.3359V36H105.917V25.3359H107.748ZM114.897 26.7568L111.711 36H109.785L113.799 25.3359H115.029L114.897 26.7568ZM117.563 36L114.37 26.7568L114.231 25.3359H115.469L119.497 36H117.563ZM117.41 32.0449V33.5024H111.609V32.0449H117.41ZM41.2307 46.3359H42.8713L45.9548 54.561L49.031 46.3359H50.6716L46.5993 57H45.2956L41.2307 46.3359ZM40.4836 46.3359H42.0437L42.3146 53.4551V57H40.4836V46.3359ZM49.8586 46.3359H51.426V57H49.5876V53.4551L49.8586 46.3359ZM58.5683 47.7568L55.3822 57H53.456L57.4696 46.3359H58.7001L58.5683 47.7568ZM61.2343 57L58.0409 47.7568L57.9018 46.3359H59.1395L63.1679 57H61.2343ZM61.0805 53.0449V54.5024H55.2797V53.0449H61.0805ZM65.7838 46.3359H67.4244L70.5079 54.561L73.5841 46.3359H75.2247L71.1524 57H69.8487L65.7838 46.3359ZM65.0367 46.3359H66.5968L66.8678 53.4551V57H65.0367V46.3359ZM74.4117 46.3359H75.9791V57H74.1407V53.4551L74.4117 46.3359ZM87.3401 51.375V51.9609C87.3401 52.7666 87.2352 53.4893 87.0252 54.1289C86.8152 54.7686 86.5149 55.313 86.1243 55.7622C85.7386 56.2114 85.2747 56.5557 84.7327 56.7949C84.1907 57.0293 83.5901 57.1465 82.931 57.1465C82.2767 57.1465 81.6785 57.0293 81.1365 56.7949C80.5994 56.5557 80.1331 56.2114 79.7376 55.7622C79.3421 55.313 79.0345 54.7686 78.8147 54.1289C78.5999 53.4893 78.4925 52.7666 78.4925 51.9609V51.375C78.4925 50.5693 78.5999 49.8491 78.8147 49.2144C79.0296 48.5747 79.3323 48.0303 79.7229 47.5811C80.1185 47.127 80.5848 46.7827 81.1219 46.5483C81.6639 46.3091 82.262 46.1895 82.9163 46.1895C83.5755 46.1895 84.1761 46.3091 84.7181 46.5483C85.2601 46.7827 85.7264 47.127 86.117 47.5811C86.5076 48.0303 86.8079 48.5747 87.0179 49.2144C87.2327 49.8491 87.3401 50.5693 87.3401 51.375ZM85.5018 51.9609V51.3604C85.5018 50.7646 85.4432 50.2397 85.326 49.7856C85.2137 49.3267 85.0452 48.9434 84.8206 48.6357C84.6009 48.3232 84.3299 48.0889 84.0076 47.9326C83.6854 47.7715 83.3216 47.6909 82.9163 47.6909C82.511 47.6909 82.1497 47.7715 81.8323 47.9326C81.5149 48.0889 81.2439 48.3232 81.0193 48.6357C80.7996 48.9434 80.6312 49.3267 80.514 49.7856C80.3968 50.2397 80.3382 50.7646 80.3382 51.3604V51.9609C80.3382 52.5566 80.3968 53.084 80.514 53.543C80.6312 54.002 80.8021 54.3901 81.0267 54.7075C81.2562 55.02 81.5296 55.2568 81.847 55.418C82.1644 55.5742 82.5257 55.6523 82.931 55.6523C83.3411 55.6523 83.7049 55.5742 84.0223 55.418C84.3396 55.2568 84.6082 55.02 84.8279 54.7075C85.0477 54.3901 85.2137 54.002 85.326 53.543C85.4432 53.084 85.5018 52.5566 85.5018 51.9609ZM96.8994 50.7891V52.2466H91.2378V50.7891H96.8994ZM91.6919 46.3359V57H89.8535V46.3359H91.6919ZM98.313 46.3359V57H96.4819V46.3359H98.313ZM105.345 46.3359V57H103.522V46.3359H105.345ZM108.693 46.3359V47.8008H100.204V46.3359H108.693ZM119.072 51.375V51.9609C119.072 52.7666 118.967 53.4893 118.757 54.1289C118.547 54.7686 118.247 55.313 117.856 55.7622C117.471 56.2114 117.007 56.5557 116.465 56.7949C115.923 57.0293 115.322 57.1465 114.663 57.1465C114.009 57.1465 113.411 57.0293 112.869 56.7949C112.331 56.5557 111.865 56.2114 111.47 55.7622C111.074 55.313 110.767 54.7686 110.547 54.1289C110.332 53.4893 110.225 52.7666 110.225 51.9609V51.375C110.225 50.5693 110.332 49.8491 110.547 49.2144C110.762 48.5747 111.064 48.0303 111.455 47.5811C111.85 47.127 112.317 46.7827 112.854 46.5483C113.396 46.3091 113.994 46.1895 114.648 46.1895C115.308 46.1895 115.908 46.3091 116.45 46.5483C116.992 46.7827 117.458 47.127 117.849 47.5811C118.24 48.0303 118.54 48.5747 118.75 49.2144C118.965 49.8491 119.072 50.5693 119.072 51.375ZM117.234 51.9609V51.3604C117.234 50.7646 117.175 50.2397 117.058 49.7856C116.946 49.3267 116.777 48.9434 116.553 48.6357C116.333 48.3232 116.062 48.0889 115.74 47.9326C115.417 47.7715 115.054 47.6909 114.648 47.6909C114.243 47.6909 113.882 47.7715 113.564 47.9326C113.247 48.0889 112.976 48.3232 112.751 48.6357C112.532 48.9434 112.363 49.3267 112.246 49.7856C112.129 50.2397 112.07 50.7646 112.07 51.3604V51.9609C112.07 52.5566 112.129 53.084 112.246 53.543C112.363 54.002 112.534 54.3901 112.759 54.7075C112.988 55.02 113.262 55.2568 113.579 55.418C113.896 55.5742 114.258 55.6523 114.663 55.6523C115.073 55.6523 115.437 55.5742 115.754 55.418C116.072 55.2568 116.34 55.02 116.56 54.7075C116.78 54.3901 116.946 54.002 117.058 53.543C117.175 53.084 117.234 52.5566 117.234 51.9609ZM125.585 52.1807H122.867L122.853 50.8403H125.226C125.626 50.8403 125.965 50.7817 126.244 50.6646C126.527 50.5425 126.742 50.3691 126.888 50.1445C127.035 49.915 127.108 49.6392 127.108 49.3169C127.108 48.9604 127.04 48.6699 126.903 48.4453C126.766 48.2207 126.556 48.0571 126.273 47.9546C125.995 47.8521 125.638 47.8008 125.204 47.8008H123.424V57H121.586V46.3359H125.204C125.79 46.3359 126.312 46.3921 126.771 46.5044C127.235 46.6167 127.628 46.7925 127.95 47.0317C128.277 47.2661 128.524 47.564 128.69 47.9253C128.861 48.2866 128.946 48.7163 128.946 49.2144C128.946 49.6538 128.841 50.0566 128.631 50.4229C128.421 50.7842 128.111 51.0796 127.701 51.3091C127.291 51.5386 126.781 51.6753 126.171 51.7192L125.585 52.1807ZM125.504 57H122.289L123.116 55.5425H125.504C125.919 55.5425 126.266 55.4741 126.544 55.3374C126.822 55.1958 127.03 55.0029 127.167 54.7588C127.308 54.5098 127.379 54.2192 127.379 53.8872C127.379 53.5405 127.318 53.2402 127.196 52.9863C127.074 52.7275 126.881 52.5298 126.617 52.3931C126.354 52.2515 126.009 52.1807 125.585 52.1807H123.519L123.534 50.8403H126.222L126.639 51.3457C127.225 51.3652 127.706 51.4946 128.082 51.7339C128.463 51.9731 128.746 52.2832 128.932 52.6641C129.117 53.0449 129.21 53.4551 129.21 53.8945C129.21 54.5732 129.061 55.1421 128.763 55.6011C128.47 56.0601 128.048 56.4092 127.496 56.6484C126.944 56.8828 126.28 57 125.504 57ZM135.891 47.7568L132.705 57H130.779L134.792 46.3359H136.023L135.891 47.7568ZM138.557 57L135.364 47.7568L135.224 46.3359H136.462L140.491 57H138.557ZM138.403 53.0449V54.5024H132.602V53.0449H138.403Z" fill="#AE8B8B"/>
<defs>
<linearGradient id="paint0_linear_2_129" x1="90.4377" y1="-61" x2="159.402" y2="45.8171" gradientUnits="userSpaceOnUse">
<stop stop-color="#F2DEDC"/>
<stop offset="1" stop-color="#F4DCD5"/>
</linearGradient>
<linearGradient id="paint1_linear_2_129" x1="20.5786" y1="-71.0645" x2="186.934" y2="-47.7916" gradientUnits="userSpaceOnUse">
<stop stop-color="white" stop-opacity="0"/>
<stop offset="0.494406" stop-color="white"/>
<stop offset="1" stop-color="white" stop-opacity="0"/>
</linearGradient>
</defs>
</svg>
