<svg width="81" height="54" viewBox="0 0 81 54" fill="none" xmlns="http://www.w3.org/2000/svg">
<rect x="0.447388" y="-11.2112" width="80.4955" height="64.3964" rx="5.81356" fill="#E3C6C6"/>
<rect y="-13" width="80.9427" height="64.3964" rx="5.81356" fill="url(#paint0_linear_2_426)"/>
<rect y="-13" width="80.9427" height="64.3964" rx="5.81356" fill="url(#paint1_linear_2_426)" fill-opacity="0.4"/>
<path d="M25.5091 23.5943V23.949C25.5091 24.4368 25.4456 24.8744 25.3185 25.2617C25.1913 25.6489 25.0095 25.9786 24.773 26.2506C24.5395 26.5225 24.2586 26.731 23.9304 26.8758C23.6023 27.0177 23.2387 27.0887 22.8395 27.0887C22.4434 27.0887 22.0812 27.0177 21.7531 26.8758C21.4279 26.731 21.1456 26.5225 20.9061 26.2506C20.6666 25.9786 20.4804 25.6489 20.3473 25.2617C20.2173 24.8744 20.1522 24.4368 20.1522 23.949V23.5943C20.1522 23.1065 20.2173 22.6704 20.3473 22.2861C20.4774 21.8988 20.6607 21.5692 20.8972 21.2972C21.1367 21.0222 21.419 20.8138 21.7442 20.6719C22.0724 20.527 22.4345 20.4546 22.8307 20.4546C23.2298 20.4546 23.5934 20.527 23.9216 20.6719C24.2497 20.8138 24.5321 21.0222 24.7686 21.2972C25.0051 21.5692 25.1869 21.8988 25.314 22.2861C25.4441 22.6704 25.5091 23.1065 25.5091 23.5943ZM24.3961 23.949V23.5854C24.3961 23.2247 24.3606 22.9069 24.2896 22.632C24.2216 22.3541 24.1197 22.122 23.9837 21.9357C23.8506 21.7465 23.6865 21.6046 23.4914 21.51C23.2963 21.4125 23.0761 21.3637 22.8307 21.3637C22.5853 21.3637 22.3665 21.4125 22.1744 21.51C21.9822 21.6046 21.8181 21.7465 21.6821 21.9357C21.5491 22.122 21.4471 22.3541 21.3761 22.632C21.3052 22.9069 21.2697 23.2247 21.2697 23.5854V23.949C21.2697 24.3097 21.3052 24.629 21.3761 24.9069C21.4471 25.1848 21.5506 25.4198 21.6866 25.612C21.8255 25.8012 21.9911 25.9446 22.1832 26.0421C22.3754 26.1367 22.5942 26.184 22.8395 26.184C23.0879 26.184 23.3081 26.1367 23.5003 26.0421C23.6925 25.9446 23.8551 25.8012 23.9881 25.612C24.1211 25.4198 24.2216 25.1848 24.2896 24.9069C24.3606 24.629 24.3961 24.3097 24.3961 23.949ZM28.1617 20.5433V27H27.0531V20.5433H28.1617ZM32.0464 20.5433L29.4211 24.224H27.8469L27.6961 23.2572H28.8047L30.685 20.5433H32.0464ZM30.9111 27L28.8225 24.0555L29.5409 23.1996L32.2459 27H30.9111ZM36.965 24.898H38.0736C38.0382 25.3208 37.9199 25.6977 37.7189 26.0288C37.5178 26.357 37.2355 26.6157 36.8719 26.8049C36.5082 26.9941 36.0663 27.0887 35.5459 27.0887C35.1468 27.0887 34.7876 27.0177 34.4683 26.8758C34.1491 26.731 33.8756 26.527 33.648 26.2639C33.4203 25.9978 33.2459 25.677 33.1247 25.3016C33.0064 24.9261 32.9473 24.5063 32.9473 24.0422V23.5056C32.9473 23.0414 33.0079 22.6216 33.1291 22.2462C33.2533 21.8707 33.4307 21.5499 33.6613 21.2839C33.8919 21.0148 34.1683 20.8094 34.4905 20.6675C34.8157 20.5256 35.1808 20.4546 35.5859 20.4546C36.1003 20.4546 36.5348 20.5492 36.8896 20.7384C37.2444 20.9276 37.5193 21.1893 37.7144 21.5233C37.9125 21.8574 38.0337 22.2403 38.0781 22.6719H36.9694C36.9399 22.394 36.8748 22.156 36.7743 21.9579C36.6767 21.7598 36.5319 21.6091 36.3397 21.5056C36.1476 21.3992 35.8963 21.346 35.5859 21.346C35.3316 21.346 35.1099 21.3933 34.9207 21.4879C34.7315 21.5825 34.5733 21.7214 34.4462 21.9047C34.319 22.088 34.223 22.3142 34.1579 22.5832C34.0958 22.8493 34.0648 23.1538 34.0648 23.4967V24.0422C34.0648 24.3674 34.0929 24.663 34.1491 24.9291C34.2082 25.1922 34.2969 25.4183 34.4151 25.6076C34.5363 25.7968 34.6901 25.9431 34.8763 26.0466C35.0626 26.15 35.2858 26.2018 35.5459 26.2018C35.8623 26.2018 36.118 26.1515 36.3131 26.051C36.5112 25.9505 36.6605 25.8042 36.761 25.612C36.8645 25.4169 36.9325 25.1789 36.965 24.898ZM42.0078 21.4036L40.0788 27H38.9125L41.3426 20.5433H42.0876L42.0078 21.4036ZM43.622 27L41.6885 21.4036L41.6042 20.5433H42.3537L44.7927 27H43.622ZM43.5288 24.6053V25.4878H40.0167V24.6053H43.5288ZM50.1902 23.2395V24.122H46.7623V23.2395H50.1902ZM47.0373 20.5433V27H45.9242V20.5433H47.0373ZM51.0461 20.5433V27H49.9375V20.5433H51.0461ZM55.3749 21.4036L53.4459 27H52.2796L54.7097 20.5433H55.4547L55.3749 21.4036ZM56.9891 27L55.0556 21.4036L54.9714 20.5433H55.7208L58.1598 27H56.9891ZM56.896 24.6053V25.4878H53.3838V24.6053H56.896ZM10.7724 33.5433H11.7658L13.6327 38.5233L15.4952 33.5433H16.4886L14.023 40H13.2336L10.7724 33.5433ZM10.3201 33.5433H11.2647L11.4288 37.8537V40H10.3201V33.5433ZM15.9963 33.5433H16.9453V40H15.8323V37.8537L15.9963 33.5433ZM21.2697 34.4036L19.3407 40H18.1744L20.6045 33.5433H21.3495L21.2697 34.4036ZM22.8839 40L20.9504 34.4036L20.8662 33.5433H21.6156L24.0546 40H22.8839ZM22.7908 37.6053V38.4878H19.2786V37.6053H22.7908ZM25.6385 33.5433H26.6318L28.4987 38.5233L30.3612 33.5433H31.3546L28.889 40H28.0996L25.6385 33.5433ZM25.1861 33.5433H26.1307L26.2948 37.8537V40H25.1861V33.5433ZM30.8623 33.5433H31.8113V40H30.6983V37.8537L30.8623 33.5433ZM38.69 36.5943V36.949C38.69 37.4368 38.6265 37.8744 38.4993 38.2617C38.3722 38.6489 38.1904 38.9786 37.9539 39.2506C37.7203 39.5225 37.4395 39.731 37.1113 39.8758C36.7832 40.0177 36.4195 40.0887 36.0204 40.0887C35.6243 40.0887 35.2621 40.0177 34.934 39.8758C34.6088 39.731 34.3264 39.5225 34.087 39.2506C33.8475 38.9786 33.6613 38.6489 33.5282 38.2617C33.3981 37.8744 33.3331 37.4368 33.3331 36.949V36.5943C33.3331 36.1065 33.3981 35.6704 33.5282 35.2861C33.6583 34.8988 33.8416 34.5692 34.0781 34.2972C34.3176 34.0222 34.5999 33.8138 34.9251 33.6719C35.2533 33.527 35.6154 33.4546 36.0116 33.4546C36.4107 33.4546 36.7743 33.527 37.1025 33.6719C37.4306 33.8138 37.713 34.0222 37.9495 34.2972C38.186 34.5692 38.3678 34.8988 38.4949 35.2861C38.625 35.6704 38.69 36.1065 38.69 36.5943ZM37.577 36.949V36.5854C37.577 36.2247 37.5415 35.9069 37.4705 35.632C37.4025 35.3541 37.3005 35.122 37.1645 34.9357C37.0315 34.7465 36.8674 34.6046 36.6723 34.51C36.4772 34.4125 36.2569 34.3637 36.0116 34.3637C35.7662 34.3637 35.5474 34.4125 35.3553 34.51C35.1631 34.6046 34.999 34.7465 34.863 34.9357C34.73 35.122 34.628 35.3541 34.557 35.632C34.4861 35.9069 34.4506 36.2247 34.4506 36.5854V36.949C34.4506 37.3097 34.4861 37.629 34.557 37.9069C34.628 38.1848 34.7315 38.4198 34.8675 38.612C35.0064 38.8012 35.172 38.9446 35.3641 39.0421C35.5563 39.1367 35.7751 39.184 36.0204 39.184C36.2688 39.184 36.489 39.1367 36.6812 39.0421C36.8733 38.9446 37.0359 38.8012 37.169 38.612C37.302 38.4198 37.4025 38.1848 37.4705 37.9069C37.5415 37.629 37.577 37.3097 37.577 36.949ZM44.4778 36.2395V37.122H41.0499V36.2395H44.4778ZM41.3249 33.5433V40H40.2118V33.5433H41.3249ZM45.3337 33.5433V40H44.225V33.5433H45.3337ZM49.5916 33.5433V40H48.4874V33.5433H49.5916ZM51.6181 33.5433V34.4302H46.4785V33.5433H51.6181ZM57.9026 36.5943V36.949C57.9026 37.4368 57.8391 37.8744 57.7119 38.2617C57.5848 38.6489 57.403 38.9786 57.1665 39.2506C56.9329 39.5225 56.6521 39.731 56.3239 39.8758C55.9958 40.0177 55.6321 40.0887 55.233 40.0887C54.8369 40.0887 54.4747 40.0177 54.1466 39.8758C53.8214 39.731 53.539 39.5225 53.2996 39.2506C53.0601 38.9786 52.8738 38.6489 52.7408 38.2617C52.6107 37.8744 52.5457 37.4368 52.5457 36.949V36.5943C52.5457 36.1065 52.6107 35.6704 52.7408 35.2861C52.8709 34.8988 53.0542 34.5692 53.2907 34.2972C53.5302 34.0222 53.8125 33.8138 54.1377 33.6719C54.4658 33.527 54.828 33.4546 55.2241 33.4546C55.6233 33.4546 55.9869 33.527 56.315 33.6719C56.6432 33.8138 56.9255 34.0222 57.162 34.2972C57.3986 34.5692 57.5804 34.8988 57.7075 35.2861C57.8376 35.6704 57.9026 36.1065 57.9026 36.5943ZM56.7895 36.949V36.5854C56.7895 36.2247 56.7541 35.9069 56.6831 35.632C56.6151 35.3541 56.5131 35.122 56.3771 34.9357C56.2441 34.7465 56.08 34.6046 55.8849 34.51C55.6898 34.4125 55.4695 34.3637 55.2241 34.3637C54.9788 34.3637 54.76 34.4125 54.5678 34.51C54.3757 34.6046 54.2116 34.7465 54.0756 34.9357C53.9426 35.122 53.8406 35.3541 53.7696 35.632C53.6987 35.9069 53.6632 36.2247 53.6632 36.5854V36.949C53.6632 37.3097 53.6987 37.629 53.7696 37.9069C53.8406 38.1848 53.944 38.4198 54.08 38.612C54.219 38.8012 54.3845 38.9446 54.5767 39.0421C54.7689 39.1367 54.9876 39.184 55.233 39.184C55.4814 39.184 55.7016 39.1367 55.8938 39.0421C56.0859 38.9446 56.2485 38.8012 56.3816 38.612C56.5146 38.4198 56.6151 38.1848 56.6831 37.9069C56.7541 37.629 56.7895 37.3097 56.7895 36.949ZM61.8456 37.0821H60.2004L60.1915 36.2705H61.6283C61.8708 36.2705 62.0762 36.2351 62.2447 36.1641C62.4162 36.0902 62.5463 35.9853 62.635 35.8493C62.7237 35.7103 62.768 35.5433 62.768 35.3482C62.768 35.1323 62.7266 34.9564 62.6439 34.8205C62.5611 34.6845 62.4339 34.5854 62.2625 34.5233C62.094 34.4613 61.8782 34.4302 61.615 34.4302H60.5374V40H59.4244V33.5433H61.615C61.9698 33.5433 62.2861 33.5773 62.564 33.6453C62.8449 33.7133 63.0829 33.8197 63.278 33.9646C63.4761 34.1065 63.6254 34.2868 63.7259 34.5056C63.8294 34.7244 63.8811 34.9845 63.8811 35.2861C63.8811 35.5522 63.8175 35.7961 63.6904 36.0178C63.5633 36.2365 63.3756 36.4154 63.1272 36.5544C62.8789 36.6933 62.5699 36.7761 62.2004 36.8027L61.8456 37.0821ZM61.7969 40H59.8501L60.3512 39.1175H61.7969C62.0481 39.1175 62.258 39.0761 62.4266 38.9934C62.5951 38.9076 62.7207 38.7908 62.8035 38.643C62.8892 38.4923 62.9321 38.3164 62.9321 38.1153C62.9321 37.9054 62.8951 37.7236 62.8212 37.5699C62.7473 37.4132 62.6305 37.2934 62.4709 37.2107C62.3113 37.1249 62.1028 37.0821 61.8456 37.0821H60.5951L60.604 36.2705H62.2314L62.4842 36.5765C62.839 36.5884 63.1302 36.6667 63.3578 36.8116C63.5884 36.9564 63.7599 37.1442 63.8722 37.3747C63.9846 37.6053 64.0407 37.8537 64.0407 38.1198C64.0407 38.5307 63.9506 38.8751 63.7702 39.153C63.5928 39.4309 63.3371 39.6423 63.003 39.7871C62.669 39.929 62.2669 40 61.7969 40ZM68.0857 34.4036L66.1567 40H64.9904L67.4206 33.5433H68.1656L68.0857 34.4036ZM69.6999 40L67.7665 34.4036L67.6822 33.5433H68.4316L70.8706 40H69.6999ZM69.6068 37.6053V38.4878H66.0946V37.6053H69.6068Z" fill="#AE8B8B"/>
<defs>
<linearGradient id="paint0_linear_2_426" x1="40.4435" y1="-13" x2="71.2841" y2="34.7683" gradientUnits="userSpaceOnUse">
<stop stop-color="#F2DEDC"/>
<stop offset="1" stop-color="#F4DCD5"/>
</linearGradient>
<linearGradient id="paint1_linear_2_426" x1="9.20271" y1="-17.5008" x2="83.5964" y2="-7.09325" gradientUnits="userSpaceOnUse">
<stop stop-color="white" stop-opacity="0"/>
<stop offset="0.494406" stop-color="white"/>
<stop offset="1" stop-color="white" stop-opacity="0"/>
</linearGradient>
</defs>
</svg>
