<svg width="70" height="22" viewBox="0 0 70 22" fill="none" xmlns="http://www.w3.org/2000/svg">
<path d="M3.10638 7.73912L2.80599 8.00478L3.10638 7.73912ZM1.32666 5.29864C1.1056 5.28507 0.915407 5.45328 0.901834 5.67433L0.680767 9.27665C0.667195 9.49771 0.835401 9.6879 1.05646 9.70147C1.27751 9.71504 1.46771 9.54683 1.48128 9.32578L1.67779 6.12372L4.87985 6.32023C5.10091 6.33379 5.2911 6.16559 5.30467 5.94454C5.31824 5.72348 5.15003 5.53328 4.92898 5.51971L1.32666 5.29864ZM3.40678 7.47347L1.60249 5.43324L1.0017 5.96455L2.80599 8.00478L3.40678 7.47347ZM68.6963 0.827355C54.936 24.7926 21.7138 28.1744 3.40678 7.47347L2.80599 8.00478C21.4765 29.1167 55.3583 25.6677 69.3918 1.22671L68.6963 0.827355Z" fill="url(#paint0_linear_2_145)"/>
<defs>
<linearGradient id="paint0_linear_2_145" x1="54.9836" y1="16.6088" x2="3.99112" y2="-29.4765" gradientUnits="userSpaceOnUse">
<stop stop-color="#888888" stop-opacity="0"/>
<stop offset="0.28125" stop-color="#888888"/>
<stop offset="0.551448" stop-color="#888888"/>
<stop offset="0.739583" stop-color="#888888"/>
<stop offset="1" stop-color="#888888" stop-opacity="0"/>
</linearGradient>
</defs>
</svg>
