<svg width="55" height="18" viewBox="0 0 55 18" fill="none" xmlns="http://www.w3.org/2000/svg">
<path opacity="0.7" d="M52.5938 2.91112L52.3099 2.72016L52.5938 2.91112ZM53.7118 0.815185C53.8973 0.778872 54.077 0.899777 54.1134 1.08524L54.7051 4.1075C54.7414 4.29296 54.6205 4.47274 54.4351 4.50905C54.2496 4.54537 54.0698 4.42446 54.0335 4.239L53.5075 1.55255L50.8211 2.07856C50.6356 2.11487 50.4558 1.99397 50.4195 1.80851C50.3832 1.62304 50.5041 1.44326 50.6895 1.40695L53.7118 0.815185ZM52.3099 2.72016L53.4936 0.960033L54.0615 1.34195L52.8778 3.10207L52.3099 2.72016ZM1.27167 4.2834C14.3403 21.3578 40.3107 20.5623 52.3099 2.72016L52.8778 3.10207C40.6174 21.3327 14.0814 22.1455 0.728221 4.69936L1.27167 4.2834Z" fill="url(#paint0_linear_2_433)"/>
<defs>
<linearGradient id="paint0_linear_2_433" x1="13.4529" y1="15.0789" x2="48.0942" y2="-25.7296" gradientUnits="userSpaceOnUse">
<stop stop-color="#ABABAB" stop-opacity="0"/>
<stop offset="0.28125" stop-color="#ABABAB"/>
<stop offset="0.551448" stop-color="#ABABAB"/>
<stop offset="0.739583" stop-color="#ABABAB"/>
<stop offset="1" stop-color="#ABABAB" stop-opacity="0"/>
</linearGradient>
</defs>
</svg>
