<svg width="102" height="94" viewBox="0 0 102 94" fill="none" xmlns="http://www.w3.org/2000/svg">
<path d="M5.96891 15.9716L6.46178 15.8875L5.96891 15.9716ZM3.65701 0.325474C3.43167 0.165845 3.11961 0.219113 2.95998 0.444446L0.358739 4.11644C0.199113 4.34177 0.252376 4.65384 0.477712 4.81347C0.703047 4.9731 1.01511 4.91983 1.17474 4.69449L3.48695 1.4305L6.75095 3.74271C6.97628 3.90234 7.28835 3.84907 7.44797 3.62374C7.6076 3.39841 7.55434 3.08634 7.329 2.92671L3.65701 0.325474ZM6.46178 15.8875L3.86085 0.649348L2.87511 0.8176L5.47604 16.0557L6.46178 15.8875ZM101.917 92.5669C55.2879 94.8179 14.3164 61.9054 6.46178 15.8875L5.47604 16.0557C13.4157 62.5721 54.8311 95.8411 101.965 93.5657L101.917 92.5669Z" fill="url(#paint0_linear_2_122)"/>
<defs>
<linearGradient id="paint0_linear_2_122" x1="108.739" y1="98.7308" x2="110.152" y2="-32.6413" gradientUnits="userSpaceOnUse">
<stop stop-color="#888888" stop-opacity="0"/>
<stop offset="0.28125" stop-color="#888888"/>
<stop offset="0.551448" stop-color="#888888"/>
<stop offset="0.739583" stop-color="#888888"/>
<stop offset="1" stop-color="#888888" stop-opacity="0"/>
</linearGradient>
</defs>
</svg>
