<svg width="39" height="40" viewBox="0 0 39 40" fill="none" xmlns="http://www.w3.org/2000/svg">
<g filter="url(#filter0_d_2_311)">
<path fill-rule="evenodd" clip-rule="evenodd" d="M28.6372 4.247C30.929 6.54928 32.3464 9.7294 32.3464 13.2417L32.3464 13.2417C32.3464 16.7518 30.9285 19.931 28.6356 22.2326C26.3437 24.5332 23.1784 25.9566 19.682 25.9566C18.5888 25.9566 17.5292 25.8177 16.5181 25.556C15.5145 25.2962 14.5586 24.915 13.6651 24.4286L6.91661 26.6014L6.40125 26.7673L6.57469 26.2489L8.76882 19.6923C8.21493 18.7486 7.77797 17.7261 7.47927 16.6462C7.17867 15.5594 7.01757 14.4158 7.01757 13.2373C7.01757 9.72656 8.43578 6.54702 10.7293 4.24527C13.0218 1.94456 16.1882 0.52124 19.6861 0.52124C23.181 0.52124 26.3458 1.94504 28.6372 4.247ZM16.9542 8.14937C17.25 8.87214 17.5709 9.65627 17.6265 9.76958L17.6265 9.76957L17.6261 9.76977C17.6829 9.88241 17.7295 10.0081 17.7439 10.149C17.7595 10.3004 17.7382 10.462 17.6549 10.6318L17.6538 10.6328C17.6364 10.6679 17.6191 10.7036 17.6026 10.7377L17.6025 10.738C17.5078 10.9336 17.4377 11.0786 17.2684 11.2777L17.2674 11.2788C17.1982 11.3594 17.1412 11.4287 17.0844 11.4978L17.0835 11.4989L17.0827 11.4999C16.9574 11.6522 16.8326 11.8038 16.7223 11.9153L16.7229 11.9159C16.6229 12.017 16.5146 12.1266 16.6121 12.2957C16.7355 12.5112 17.0462 13.023 17.5058 13.5975C17.7898 13.9524 18.1299 14.3306 18.5163 14.6767C19.5966 15.6443 20.5444 16.0581 21.0311 16.2705C21.1273 16.3125 21.2052 16.3466 21.2853 16.3871C21.4104 16.4493 21.5008 16.4765 21.5666 16.4685C21.614 16.4627 21.6623 16.4275 21.7183 16.363V16.3619C21.8496 16.2111 22.1575 15.8518 22.4157 15.5319C22.5787 15.3299 22.7278 15.137 22.8124 15.0084L22.8129 15.0087C22.9815 14.7504 23.1633 14.6418 23.3718 14.618C23.5556 14.597 23.7271 14.6511 23.9239 14.7226C24.0638 14.7734 24.4172 14.9368 24.8148 15.127C25.4302 15.4213 26.1501 15.7774 26.3581 15.8845L26.358 15.8848C26.412 15.9113 26.4682 15.9381 26.5209 15.9633L26.5227 15.9642L26.5228 15.9642C26.8245 16.1084 27.0257 16.2044 27.142 16.3983L27.143 16.3994C27.2195 16.5286 27.2605 16.8633 27.2087 17.2886C27.1731 17.5814 27.0963 17.9371 26.9605 18.32C26.8083 18.7482 26.4106 19.1549 25.9551 19.4768C25.406 19.8647 24.7534 20.141 24.3546 20.1789C24.2661 20.1872 24.1844 20.2072 24.1007 20.2277L24.1003 20.2278L24.1002 20.2278C23.6077 20.3484 23.0562 20.4834 20.0087 19.2803C16.6494 17.9528 14.4396 14.6831 13.9589 13.9718L13.9582 13.9707C13.9178 13.9109 13.8904 13.8704 13.883 13.8607L13.8808 13.8585L13.8791 13.8562L13.8798 13.8557C13.6885 13.6007 12.3869 11.8641 12.3869 10.038C12.3869 8.29726 13.2392 7.39084 13.6302 6.97501L13.6303 6.97499C13.6499 6.95414 13.6679 6.93494 13.6919 6.90874C13.8562 6.72607 14.0358 6.60198 14.2098 6.51956C14.4445 6.40843 14.6674 6.37408 14.831 6.37408C14.9541 6.37408 15.0843 6.38244 15.2098 6.3905L15.2099 6.3905C15.3102 6.39692 15.407 6.40312 15.5055 6.40312C15.5291 6.40312 15.5467 6.40197 15.565 6.40078L15.5658 6.40073L15.5658 6.40072C15.8482 6.38216 16.2164 6.35797 16.5495 7.16146C16.5848 7.2467 16.7652 7.68732 16.9542 8.14937Z" fill="#FFFAEE"/>
</g>
<defs>
<filter id="filter0_d_2_311" x="0.208568" y="0.52124" width="38.3305" height="38.6314" filterUnits="userSpaceOnUse" color-interpolation-filters="sRGB">
<feFlood flood-opacity="0" result="BackgroundImageFix"/>
<feColorMatrix in="SourceAlpha" type="matrix" values="0 0 0 0 0 0 0 0 0 0 0 0 0 0 0 0 0 0 127 0" result="hardAlpha"/>
<feOffset dy="6.19268"/>
<feGaussianBlur stdDeviation="3.09634"/>
<feComposite in2="hardAlpha" operator="out"/>
<feColorMatrix type="matrix" values="0 0 0 0 0.909583 0 0 0 0 0.769391 0 0 0 0 0.485111 0 0 0 0.81 0"/>
<feBlend mode="normal" in2="BackgroundImageFix" result="effect1_dropShadow_2_311"/>
<feBlend mode="normal" in="SourceGraphic" in2="effect1_dropShadow_2_311" result="shape"/>
</filter>
</defs>
</svg>
