<svg xmlns="http://www.w3.org/2000/svg" xmlns:xlink="http://www.w3.org/1999/xlink"><defs>
<filter id="filter0_d_2_128" x="0.119335" y="0.760986" width="38.7082" height="37.5372" filterUnits="userSpaceOnUse" color-interpolation-filters="sRGB">
<feFlood flood-opacity="0" result="BackgroundImageFix"/>
<feColorMatrix in="SourceAlpha" type="matrix" values="0 0 0 0 0 0 0 0 0 0 0 0 0 0 0 0 0 0 127 0" result="hardAlpha"/>
<feOffset dy="6.19268"/>
<feGaussianBlur stdDeviation="3.09634"/>
<feComposite in2="hardAlpha" operator="out"/>
<feColorMatrix type="matrix" values="0 0 0 0 0.909583 0 0 0 0 0.769391 0 0 0 0 0.485111 0 0 0 0.81 0"/>
<feBlend mode="normal" in2="BackgroundImageFix" result="effect1_dropShadow_2_128"/>
<feBlend mode="normal" in="SourceGraphic" in2="effect1_dropShadow_2_128" result="shape"/>
</filter>

<filter id="filter0_d_2_311" x="0.208568" y="0.52124" width="38.3305" height="38.6314" filterUnits="userSpaceOnUse" color-interpolation-filters="sRGB">
<feFlood flood-opacity="0" result="BackgroundImageFix"/>
<feColorMatrix in="SourceAlpha" type="matrix" values="0 0 0 0 0 0 0 0 0 0 0 0 0 0 0 0 0 0 127 0" result="hardAlpha"/>
<feOffset dy="6.19268"/>
<feGaussianBlur stdDeviation="3.09634"/>
<feComposite in2="hardAlpha" operator="out"/>
<feColorMatrix type="matrix" values="0 0 0 0 0.909583 0 0 0 0 0.769391 0 0 0 0 0.485111 0 0 0 0.81 0"/>
<feBlend mode="normal" in2="BackgroundImageFix" result="effect1_dropShadow_2_311"/>
<feBlend mode="normal" in="SourceGraphic" in2="effect1_dropShadow_2_311" result="shape"/>
</filter>
</defs><symbol id="icon-arrow-right" viewBox="0 0 25 16">
<path d="M24.7071 7.29289C25.0976 7.68342 25.0976 8.31658 24.7071 8.70711L18.3431 15.0711C17.9526 15.4616 17.3195 15.4616 16.9289 15.0711C16.5384 14.6805 16.5384 14.0474 16.9289 13.6569L22.5858 8L16.9289 2.34315C16.5384 1.95262 16.5384 1.31946 16.9289 0.928932C17.3195 0.538408 17.9526 0.538408 18.3431 0.928932L24.7071 7.29289ZM0 7L24 7V9L0 9L0 7Z" fill="#AE8B8B"/>
</symbol><symbol id="icon-triangle-play" viewBox="0 0 24 28">
<path d="M23 15.6188C24.3333 14.849 24.3333 12.9245 23 12.1547L3.66992 0.994442C2.33659 0.22464 0.669922 1.18689 0.669922 2.72649V25.0469C0.669922 26.5865 2.33659 27.5488 3.66992 26.779L23 15.6188Z" fill="white"/>
</symbol><symbol id="icon-vk" viewBox="0 0 39 39">
<g filter="url(#filter0_d_2_128)">
<path d="M23.5135 0.760986H15.4334C8.05996 0.760986 6.31201 2.43118 6.31201 9.47664V17.1973C6.31201 24.2427 8.05996 25.9129 15.4334 25.9129H23.5135C30.887 25.9129 32.6349 24.2427 32.6349 17.1973V9.47664C32.6349 2.43118 30.8697 0.760986 23.5135 0.760986ZM27.5622 18.7032H25.6513C24.9275 18.7032 24.7046 18.1546 23.4025 16.8939C22.2714 15.8462 21.7705 15.7071 21.4916 15.7071C21.0976 15.7071 20.9858 15.8132 20.9858 16.3295V17.9793C20.9858 18.4218 20.8402 18.6875 19.6145 18.6875C17.5877 18.6875 15.3388 17.5164 13.762 15.3345C11.384 12.1372 10.7333 9.7423 10.7333 9.24714C10.7333 8.98069 10.8443 8.73154 11.3798 8.73154H13.2948C13.7793 8.73154 13.9635 8.94454 14.1519 9.4397C15.0987 12.0515 16.6755 14.3395 17.3262 14.3395C17.5664 14.3395 17.6774 14.2334 17.6774 13.6478V10.9503C17.6042 9.70615 16.919 9.59925 16.919 9.15754C16.919 8.94454 17.1032 8.73154 17.3985 8.73154H20.41C20.8171 8.73154 20.9668 8.94454 20.9668 9.40276V13.0418C20.9668 13.4348 21.1511 13.5739 21.2621 13.5739C21.5023 13.5739 21.708 13.4348 22.153 13.0088C23.5283 11.5351 24.5137 9.26286 24.5137 9.26286C24.6421 8.99641 24.865 8.74726 25.3495 8.74726H27.2644C27.8385 8.74726 27.9669 9.02942 27.8385 9.42241C27.5984 10.4866 25.2549 13.647 25.2549 13.647C25.0533 13.9661 24.976 14.1052 25.2549 14.4613C25.4605 14.7277 26.1293 15.2803 26.5743 15.7754C27.3927 16.6636 28.022 17.4087 28.1898 17.9243C28.3782 18.436 28.1001 18.7024 27.5597 18.7024L27.5622 18.7032Z" fill="#FFFAEE"/>
</g>

</symbol><symbol id="icon-vk2" viewBox="0 0 34 33">
<path d="M22.1706 0.107422H11.8637C2.45819 0.107422 0.228516 2.28593 0.228516 11.4756V21.546C0.228516 30.7356 2.45819 32.9142 11.8637 32.9142H22.1706C31.5761 32.9142 33.8058 30.7356 33.8058 21.546V11.4756C33.8058 2.28593 31.5541 0.107422 22.1706 0.107422ZM27.335 23.5102H24.8976C23.9742 23.5102 23.6899 22.7946 22.0289 21.1502C20.5862 19.7837 19.9472 19.6022 19.5915 19.6022C19.0889 19.6022 18.9462 19.7406 18.9462 20.4142V22.566C18.9462 23.1432 18.7605 23.4897 17.1971 23.4897C14.6117 23.4897 11.7431 21.9622 9.73163 19.1163C6.69823 14.9459 5.86827 11.8221 5.86827 11.1763C5.86827 10.8287 6.00992 10.5038 6.69299 10.5038H9.13566C9.75367 10.5038 9.9887 10.7816 10.229 11.4274C11.4367 14.8341 13.4481 17.8184 14.2781 17.8184C14.5844 17.8184 14.7261 17.68 14.7261 16.9162V13.3978C14.6327 11.775 13.7587 11.6356 13.7587 11.0594C13.7587 10.7816 13.9937 10.5038 14.3704 10.5038H18.2117C18.7311 10.5038 18.9221 10.7816 18.9221 11.3793V16.1258C18.9221 16.6384 19.1571 16.8199 19.2988 16.8199C19.6051 16.8199 19.8675 16.6384 20.4351 16.0828C22.1895 14.1606 23.4465 11.1968 23.4465 11.1968C23.6102 10.8492 23.8945 10.5243 24.5125 10.5243H26.9552C27.6876 10.5243 27.8512 10.8923 27.6876 11.4049C27.3812 12.793 24.3918 16.9152 24.3918 16.9152C24.1348 17.3314 24.0361 17.5129 24.3918 17.9773C24.6542 18.3248 25.5072 19.0455 26.0749 19.6914C27.1189 20.8499 27.9215 21.8217 28.1356 22.4942C28.3759 23.1616 28.0212 23.5092 27.3319 23.5092L27.335 23.5102Z" fill="white"/>
</symbol><symbol id="icon-whatsapp" viewBox="0 0 39 40">
<g filter="url(#filter0_d_2_311)">
<path fill-rule="evenodd" clip-rule="evenodd" d="M28.6372 4.247C30.929 6.54928 32.3464 9.7294 32.3464 13.2417L32.3464 13.2417C32.3464 16.7518 30.9285 19.931 28.6356 22.2326C26.3437 24.5332 23.1784 25.9566 19.682 25.9566C18.5888 25.9566 17.5292 25.8177 16.5181 25.556C15.5145 25.2962 14.5586 24.915 13.6651 24.4286L6.91661 26.6014L6.40125 26.7673L6.57469 26.2489L8.76882 19.6923C8.21493 18.7486 7.77797 17.7261 7.47927 16.6462C7.17867 15.5594 7.01757 14.4158 7.01757 13.2373C7.01757 9.72656 8.43578 6.54702 10.7293 4.24527C13.0218 1.94456 16.1882 0.52124 19.6861 0.52124C23.181 0.52124 26.3458 1.94504 28.6372 4.247ZM16.9542 8.14937C17.25 8.87214 17.5709 9.65627 17.6265 9.76958L17.6265 9.76957L17.6261 9.76977C17.6829 9.88241 17.7295 10.0081 17.7439 10.149C17.7595 10.3004 17.7382 10.462 17.6549 10.6318L17.6538 10.6328C17.6364 10.6679 17.6191 10.7036 17.6026 10.7377L17.6025 10.738C17.5078 10.9336 17.4377 11.0786 17.2684 11.2777L17.2674 11.2788C17.1982 11.3594 17.1412 11.4287 17.0844 11.4978L17.0835 11.4989L17.0827 11.4999C16.9574 11.6522 16.8326 11.8038 16.7223 11.9153L16.7229 11.9159C16.6229 12.017 16.5146 12.1266 16.6121 12.2957C16.7355 12.5112 17.0462 13.023 17.5058 13.5975C17.7898 13.9524 18.1299 14.3306 18.5163 14.6767C19.5966 15.6443 20.5444 16.0581 21.0311 16.2705C21.1273 16.3125 21.2052 16.3466 21.2853 16.3871C21.4104 16.4493 21.5008 16.4765 21.5666 16.4685C21.614 16.4627 21.6623 16.4275 21.7183 16.363V16.3619C21.8496 16.2111 22.1575 15.8518 22.4157 15.5319C22.5787 15.3299 22.7278 15.137 22.8124 15.0084L22.8129 15.0087C22.9815 14.7504 23.1633 14.6418 23.3718 14.618C23.5556 14.597 23.7271 14.6511 23.9239 14.7226C24.0638 14.7734 24.4172 14.9368 24.8148 15.127C25.4302 15.4213 26.1501 15.7774 26.3581 15.8845L26.358 15.8848C26.412 15.9113 26.4682 15.9381 26.5209 15.9633L26.5227 15.9642L26.5228 15.9642C26.8245 16.1084 27.0257 16.2044 27.142 16.3983L27.143 16.3994C27.2195 16.5286 27.2605 16.8633 27.2087 17.2886C27.1731 17.5814 27.0963 17.9371 26.9605 18.32C26.8083 18.7482 26.4106 19.1549 25.9551 19.4768C25.406 19.8647 24.7534 20.141 24.3546 20.1789C24.2661 20.1872 24.1844 20.2072 24.1007 20.2277L24.1003 20.2278L24.1002 20.2278C23.6077 20.3484 23.0562 20.4834 20.0087 19.2803C16.6494 17.9528 14.4396 14.6831 13.9589 13.9718L13.9582 13.9707C13.9178 13.9109 13.8904 13.8704 13.883 13.8607L13.8808 13.8585L13.8791 13.8562L13.8798 13.8557C13.6885 13.6007 12.3869 11.8641 12.3869 10.038C12.3869 8.29726 13.2392 7.39084 13.6302 6.97501L13.6303 6.97499C13.6499 6.95414 13.6679 6.93494 13.6919 6.90874C13.8562 6.72607 14.0358 6.60198 14.2098 6.51956C14.4445 6.40843 14.6674 6.37408 14.831 6.37408C14.9541 6.37408 15.0843 6.38244 15.2098 6.3905L15.2099 6.3905C15.3102 6.39692 15.407 6.40312 15.5055 6.40312C15.5291 6.40312 15.5467 6.40197 15.565 6.40078L15.5658 6.40073L15.5658 6.40072C15.8482 6.38216 16.2164 6.35797 16.5495 7.16146C16.5848 7.2467 16.7652 7.68732 16.9542 8.14937Z" fill="#FFFAEE"/>
</g>

</symbol><symbol id="icon-whatsapp2" viewBox="0 0 33 34">
<path fill-rule="evenodd" clip-rule="evenodd" d="M28.3132 4.71292C31.1482 7.6252 32.9017 11.6479 32.9017 16.0908C32.9017 20.5309 31.1476 24.5525 28.3112 27.4639C25.4759 30.3741 21.5602 32.1746 17.2349 32.1746C15.8826 32.1746 14.5717 31.9988 13.3209 31.6678C12.0794 31.3392 10.8969 30.8571 9.7916 30.2417L1.4432 32.9902L0.805664 33.2001L1.02023 32.5444L3.73452 24.2506C3.04932 23.0568 2.50877 21.7634 2.13926 20.3974C1.76739 19.0226 1.5681 17.576 1.5681 16.0852C1.5681 11.6443 3.32253 7.62234 6.1598 4.71074C8.99581 1.80044 12.9128 0 17.24 0C21.5634 0 25.4785 1.80105 28.3132 4.71292ZM13.8603 9.64927C14.2262 10.5635 14.6232 11.5554 14.6919 11.6988L14.6919 11.6988L14.6914 11.699C14.7617 11.8415 14.8194 12.0005 14.8372 12.1788C14.8564 12.3702 14.83 12.5746 14.727 12.7894L14.7257 12.7908C14.7042 12.8351 14.6828 12.8803 14.6624 12.9234L14.6622 12.9237C14.5451 13.1712 14.4583 13.3546 14.249 13.6064L14.2477 13.6078C14.162 13.7098 14.0916 13.7975 14.0212 13.885L14.0202 13.8862L14.0192 13.8875C13.8642 14.0801 13.7099 14.272 13.5734 14.413L13.574 14.4137C13.4504 14.5417 13.3165 14.6803 13.437 14.8941C13.5897 15.1668 13.974 15.8142 14.5426 16.5408C14.894 16.9898 15.3147 17.4683 15.7927 17.906C17.129 19.13 18.3016 19.6534 18.9036 19.9221C19.0226 19.9753 19.1191 20.0184 19.2181 20.0696C19.3729 20.1483 19.4847 20.1828 19.5661 20.1726C19.6247 20.1653 19.6845 20.1208 19.7538 20.0391V20.0378C19.9162 19.847 20.2971 19.3925 20.6165 18.9878C20.8181 18.7323 21.0026 18.4883 21.1073 18.3256L21.1079 18.326C21.3164 17.9993 21.5414 17.8619 21.7992 17.8318C22.0267 17.8053 22.2388 17.8737 22.4823 17.9641C22.6554 18.0284 23.0925 18.2351 23.5844 18.4757C24.3456 18.8479 25.2362 19.2984 25.4936 19.4338L25.4934 19.4343C25.56 19.4677 25.6294 19.5015 25.6944 19.5333L25.6972 19.5346L25.6974 19.5347C26.0706 19.717 26.3194 19.8386 26.4632 20.0837L26.4646 20.0851C26.5592 20.2487 26.6098 20.672 26.5458 21.21C26.5018 21.5803 26.4068 22.0303 26.2387 22.5147C26.0504 23.0564 25.5585 23.5708 24.995 23.9779C24.3157 24.4687 23.5084 24.8181 23.015 24.8661C22.9056 24.8766 22.8045 24.9019 22.7009 24.9278L22.7004 24.9279L22.7004 24.9279C22.091 25.0804 21.4088 25.2512 17.6389 23.7294C13.4832 22.0502 10.7495 17.9141 10.1549 17.0144L10.1537 17.0126C10.1038 16.9372 10.0701 16.8861 10.0609 16.8739L10.0583 16.8711L10.0561 16.8681L10.0569 16.8675C9.82032 16.5449 8.2102 14.3482 8.2102 12.0383C8.2102 9.83634 9.26456 8.68977 9.74827 8.16376L9.7483 8.16373C9.77255 8.13736 9.79489 8.11306 9.82454 8.07993C10.0278 7.84886 10.2499 7.69188 10.4653 7.58764C10.7556 7.44705 11.0313 7.40361 11.2337 7.40361C11.386 7.40361 11.5471 7.41417 11.7023 7.42437L11.7023 7.42437C11.8265 7.4325 11.9462 7.44034 12.0681 7.44034C12.0972 7.44034 12.1191 7.43888 12.1417 7.43738L12.1427 7.43731L12.1427 7.43731C12.4921 7.41383 12.9475 7.38322 13.3595 8.39961C13.4033 8.50742 13.6264 9.0648 13.8603 9.64927Z" fill="white"/>
</symbol></svg>