<svg width="33" height="34" viewBox="0 0 33 34" fill="none" xmlns="http://www.w3.org/2000/svg">
<path fill-rule="evenodd" clip-rule="evenodd" d="M28.3132 4.71292C31.1482 7.6252 32.9017 11.6479 32.9017 16.0908C32.9017 20.5309 31.1476 24.5525 28.3112 27.4639C25.4759 30.3741 21.5602 32.1746 17.2349 32.1746C15.8826 32.1746 14.5717 31.9988 13.3209 31.6678C12.0794 31.3392 10.8969 30.8571 9.7916 30.2417L1.4432 32.9902L0.805664 33.2001L1.02023 32.5444L3.73452 24.2506C3.04932 23.0568 2.50877 21.7634 2.13926 20.3974C1.76739 19.0226 1.5681 17.576 1.5681 16.0852C1.5681 11.6443 3.32253 7.62234 6.1598 4.71074C8.99581 1.80044 12.9128 0 17.24 0C21.5634 0 25.4785 1.80105 28.3132 4.71292ZM13.8603 9.64927C14.2262 10.5635 14.6232 11.5554 14.6919 11.6988L14.6919 11.6988L14.6914 11.699C14.7617 11.8415 14.8194 12.0005 14.8372 12.1788C14.8564 12.3702 14.83 12.5746 14.727 12.7894L14.7257 12.7908C14.7042 12.8351 14.6828 12.8803 14.6624 12.9234L14.6622 12.9237C14.5451 13.1712 14.4583 13.3546 14.249 13.6064L14.2477 13.6078C14.162 13.7098 14.0916 13.7975 14.0212 13.885L14.0202 13.8862L14.0192 13.8875C13.8642 14.0801 13.7099 14.272 13.5734 14.413L13.574 14.4137C13.4504 14.5417 13.3165 14.6803 13.437 14.8941C13.5897 15.1668 13.974 15.8142 14.5426 16.5408C14.894 16.9898 15.3147 17.4683 15.7927 17.906C17.129 19.13 18.3016 19.6534 18.9036 19.9221C19.0226 19.9753 19.1191 20.0184 19.2181 20.0696C19.3729 20.1483 19.4847 20.1828 19.5661 20.1726C19.6247 20.1653 19.6845 20.1208 19.7538 20.0391V20.0378C19.9162 19.847 20.2971 19.3925 20.6165 18.9878C20.8181 18.7323 21.0026 18.4883 21.1073 18.3256L21.1079 18.326C21.3164 17.9993 21.5414 17.8619 21.7992 17.8318C22.0267 17.8053 22.2388 17.8737 22.4823 17.9641C22.6554 18.0284 23.0925 18.2351 23.5844 18.4757C24.3456 18.8479 25.2362 19.2984 25.4936 19.4338L25.4934 19.4343C25.56 19.4677 25.6294 19.5015 25.6944 19.5333L25.6972 19.5346L25.6974 19.5347C26.0706 19.717 26.3194 19.8386 26.4632 20.0837L26.4646 20.0851C26.5592 20.2487 26.6098 20.672 26.5458 21.21C26.5018 21.5803 26.4068 22.0303 26.2387 22.5147C26.0504 23.0564 25.5585 23.5708 24.995 23.9779C24.3157 24.4687 23.5084 24.8181 23.015 24.8661C22.9056 24.8766 22.8045 24.9019 22.7009 24.9278L22.7004 24.9279L22.7004 24.9279C22.091 25.0804 21.4088 25.2512 17.6389 23.7294C13.4832 22.0502 10.7495 17.9141 10.1549 17.0144L10.1537 17.0126C10.1038 16.9372 10.0701 16.8861 10.0609 16.8739L10.0583 16.8711L10.0561 16.8681L10.0569 16.8675C9.82032 16.5449 8.2102 14.3482 8.2102 12.0383C8.2102 9.83634 9.26456 8.68977 9.74827 8.16376L9.7483 8.16373C9.77255 8.13736 9.79489 8.11306 9.82454 8.07993C10.0278 7.84886 10.2499 7.69188 10.4653 7.58764C10.7556 7.44705 11.0313 7.40361 11.2337 7.40361C11.386 7.40361 11.5471 7.41417 11.7023 7.42437L11.7023 7.42437C11.8265 7.4325 11.9462 7.44034 12.0681 7.44034C12.0972 7.44034 12.1191 7.43888 12.1417 7.43738L12.1427 7.43731L12.1427 7.43731C12.4921 7.41383 12.9475 7.38322 13.3595 8.39961C13.4033 8.50742 13.6264 9.0648 13.8603 9.64927Z" fill="white"/>
</svg>
